<svg id="Ebene_1" data-name="Ebene 1" xmlns="http://www.w3.org/2000/svg" viewBox="0 0 2118.0951 389.0391"><title>partner</title><path d="M495.1453,160.3831c-5.985,0-10.622,3.547-12.598,9.547l-46.481,111.05L390.4142,170.6251c-2.3749-6.785-6.9179-10.242-13.484-10.242a13.6938,13.6938,0,0,0-13.6569,13.3751,16.65,16.65,0,0,0,1.09,5.261,12.7053,12.7053,0,0,1,.43,1.43,1.37,1.37,0,0,0,.156.301l55.6449,125.727c4.0541,9.011,10.328,10.8981,14.867,10.8981h1.1521c6.508,0,11.262-3.555,14.575-10.93l55.996-126.332a17.64,17.64,0,0,0,1.324-6.3549,13.38,13.38,0,0,0-13.363-13.3751" transform="translate(-15.1673 -68.207)" fill="#fff"/><path d="M543.0743,103.5551c-8.922,0-15.351,6.004-15.351,14.234v3.75c0,8.1051,6.586,14.1951,15.351,14.1951,8.946,0,15.6679-6.09,15.6679-14.1951v-3.75c0-8.23-6.5659-14.234-15.6679-14.234" transform="translate(-15.1673 -68.207)" fill="#fff"/><path d="M543.0743,160.3831a13.523,13.523,0,0,0-13.363,13.648v128.852a13.5058,13.5058,0,0,0,13.648,13.6441c7.629,0,13.375-5.8791,13.375-13.6441V174.0311a13.5161,13.5161,0,0,0-13.66-13.648" transform="translate(-15.1673 -68.207)" fill="#fff"/><path d="M646.2463,225.6252l-.586-.1761c-18.429-5.6049-35.851-10.906-35.851-23v-.586c0-11.398,10.562-19.054,26.246-19.054,11.699,0,24.668,3.8631,37.625,11.23a13.6989,13.6989,0,0,0,6,1.3949A12.0894,12.0894,0,0,0,691.8793,183.5a13.223,13.223,0,0,0-6.742-11.352c-15.219-8.203-32.891-12.914-48.4959-12.914-31.1761,0-53,18.4809-53,44.9419v.5621c0,29.813,29.402,38.1679,50.875,44.2459,19.961,5.606,35.2259,10.8911,35.2259,23.754v.5861c0,12.6019-11.34,21.063-28.23,21.063-15.336,0-30.668-5.1641-45.535-15.246a11.2624,11.2624,0,0,0-6.996-2.2621,12.08,12.08,0,0,0-12.196,11.933,12.4793,12.4793,0,0,0,5.0279,10.043c16.7531,11.9611,38.656,19.1181,58.5111,19.1181,33.0819,0,55.278-18.8991,55.278-46.9571v-.567c0-30.015-29.7351-38.91-49.356-44.8239" transform="translate(-15.1673 -68.207)" fill="#fff"/><path d="M732.7463,160.3831a13.5163,13.5163,0,0,0-13.355,13.648v128.852a13.4991,13.4991,0,0,0,13.64,13.6441,13.2342,13.2342,0,0,0,13.383-13.6441V174.0311a13.5178,13.5178,0,0,0-13.6679-13.648" transform="translate(-15.1673 -68.207)" fill="#fff"/><path d="M732.7463,103.5551c-8.914,0-15.363,6.004-15.363,14.234v3.75c0,8.1051,6.605,14.1951,15.363,14.1951,8.934,0,15.656-6.09,15.656-14.1951v-3.75c0-8.23-6.586-14.234-15.656-14.234" transform="translate(-15.1673 -68.207)" fill="#fff"/><path d="M849.2663,290.6721a12.4359,12.4359,0,0,0-3.051.5511,38.9856,38.9856,0,0,1-10.445,1.4529c-15.372,0-22.5041-7.0589-22.5041-22.227v-84.191h36a12.2119,12.2119,0,1,0,0-24.418h-36V129.2732a13.8041,13.8041,0,0,0-13.6179-13.6481,13.3722,13.3722,0,0,0-13.4061,13.6481V161.84h-9.6049a12.3568,12.3568,0,0,0-12.199,12.191,12.5292,12.5292,0,0,0,12.199,12.227h9.6049v87.0661c0,28.5819,15.7621,44.3479,44.3441,44.3479a57.7675,57.7675,0,0,0,22.7029-4.192,11.6739,11.6739,0,0,0,7.8911-10.89,11.9379,11.9379,0,0,0-11.914-11.918" transform="translate(-15.1673 -68.207)" fill="#fff"/><path d="M1141.9493,279.2272a52.0723,52.0723,0,0,1-18.976-18.946,50.22,50.22,0,0,1,0-51.004,51.8055,51.8055,0,0,1,18.976-18.9371,50.1623,50.1623,0,0,1,50.9729,0,51.9064,51.9064,0,0,1,18.9572,18.9371,50.0966,50.0966,0,0,1,0,51.004,52.1745,52.1745,0,0,1-18.9572,18.946,50.0447,50.0447,0,0,1-50.9729,0m199.172-120.9381h-20.4019v.188c-15.2622.9761-28.5512,7.261-39.4262,18.636-11.66,12.2031-17.508,27.192-17.508,44.4061v8.8049l-20.523,20.539a77.7117,77.7117,0,1,0-51.574,57.496c.0231.02.0351.0471.0541.0631l.2659-.164a79.811,79.811,0,0,0,13.9881-6.3521,76.9316,76.9316,0,0,0,19.7349-16.117l38.054-38.0509V303.34a9.2308,9.2308,0,0,0,8.965,8.9531h8.18a9.22,9.22,0,0,0,8.9841-8.9531v-81.485c0-10.8239,3.469-19.5229,10.192-26.613a32.0343,32.0343,0,0,1,23.9719-10.797h17.0431a9.1155,9.1155,0,0,0,8.8831-8.8749v-8.39a9.1432,9.1432,0,0,0-8.8831-8.8911" transform="translate(-15.1673 -68.207)" fill="#fff" fill-rule="evenodd"/><path d="M1040.5743,111.2621a80.3141,80.3141,0,0,0-37.4879-9.434c-20.18,0-38.5821,7.242-54.6951,21.535-16.231,14.3481-24.4531,34.5741-24.4531,60.0391V302.8981a9.4353,9.4353,0,0,0,9.4491,9.3951h8.359a9.3719,9.3719,0,0,0,9.375-9.3951V187.2662c0-20.5391,5.219-34.9811,15.9179-44.118,11.1061-9.5111,22.914-14.125,36.0472-14.125,14.1249,0,26.1289,4.961,36.8629,15.254,10.649,9.86,15.8129,21.9769,15.8129,37.0319,0,15.933-5.2539,28.347-15.949,37.894-11.1179,9.703-23.1179,14.402-36.7268,14.402a49.66,49.66,0,0,1-27.2621-7.6949,9.4214,9.4214,0,0,0-14.4181,7.8519l-.117,9.7111a9.4035,9.4035,0,0,0,4.9881,8.429,78.3526,78.3526,0,0,0,37.196,8.891c12.336,0,24.804-3.152,37.0229-9.379a78.9981,78.9981,0,0,0,30.512-27.727c7.93-12.4211,11.9061-26.664,11.9061-42.3781,0-15.735-3.996-29.8869-11.9061-42.012a78.1059,78.1059,0,0,0-30.4339-28.035" transform="translate(-15.1673 -68.207)" fill="#fff" fill-rule="evenodd"/><path d="M2128.6252,278.6522a9.101,9.101,0,0,0-9.1411.274,47.4185,47.4185,0,0,1-25.968,7.3749c-13.0078,0-24.4529-4.52-35.0039-13.7269a44.3111,44.3111,0,0,1-6.3668-6.9451c-.9931-1.4689-1.9461-2.9609-2.8251-4.582a62.8935,62.8935,0,0,1-6.1171-24.293c0-.168-.0391-.3169-.0391-.4809v-.066c-.0979-1.512-.1368-3.063-.1368-4.6251v-99.773a9.2218,9.2218,0,0,0-8.9611-8.926h-7.9139a9.2342,9.2342,0,0,0-8.98,8.961V235.0782c0,.219.0188.4649.0188.727,0,.164-.0188.312-.0188.468,0,.7229.0659,1.422.0659,2.11.0239.488.0239.98.0388,1.426.0631,1.2691.11,2.5.2272,3.7381.0389.297.0777.5739.1169.8629.098,1.1091.195,2.18.3281,3.2421a80.0193,80.0193,0,0,0,3.8481,16.446l-24.4412,24.441v-51.988c0-24.918-8.0859-44.7031-23.926-58.7581-15.7848-13.9879-33.793-21.0739-53.5508-21.0739a78.4843,78.4843,0,0,0-36.582,9.1869,76.26,76.26,0,0,0-29.8322,27.426c-7.777,11.922-11.7309,25.7731-11.7309,41.176,0,15.375,3.9259,29.316,11.7309,41.535a77.0918,77.0918,0,0,0,29.8322,27.0621,79.258,79.258,0,0,0,36.219,9.188,76.7537,76.7537,0,0,0,36.1049-8.5741,9.1982,9.1982,0,0,0,4.949-8.1449v-9.6251a9.1987,9.1987,0,0,0-14.1291-7.793,48.38,48.38,0,0,1-26.5618,7.5471c-13.301,0-25.0271-4.6331-35.8442-14.043-10.543-9.3981-15.668-21.5581-15.668-37.1521,0-14.75,5.071-26.602,15.59-36.3559,10.3631-9.9761,22.1131-14.8471,35.9222-14.8471,12.8479,0,24.4338,4.55,35.3118,13.824,10.465,8.9611,15.5321,23.0821,15.5321,43.1761v62.2139a9.19,9.19,0,0,0,9.2149,9.1961h8.1829a9.2562,9.2562,0,0,0,7.8833-4.43l.0469-.0189,2.8869-2.914,28.367-28.3561a66.5863,66.5863,0,0,0,13.406,16.2851c15.2849,13.1489,32.539,20.012,51.4179,20.012,0,0,.1561-.016.2344-.016.2617,0,.5427.016.8208.016a75.0118,75.0118,0,0,0,35.2649-8.387,8.9622,8.9622,0,0,0,4.8132-7.949v-9.4061a9.0452,9.0452,0,0,0-4.6372-7.8989" transform="translate(-15.1673 -68.207)" fill="#fff" fill-rule="evenodd"/><path d="M1764.4022,283.6331a7.2573,7.2573,0,0,1-.839.2691c-.6839.211-1.352.41-2.0468.586a3.9912,3.9912,0,0,0-.4261.1249c-.7231.1761-1.4221.34-2.1251.489-.1949.023-.352.078-.567.097-.66.1251-1.285.246-1.9448.371-.6441.094-1.308.157-1.949.223-.1992.0391-.41.066-.6062.0981-.992.097-1.988.1949-2.98.234.625.1329,1.2272.2539,1.832.391-.625-.1371-1.2658-.2581-1.9489-.391-.781.027-1.539.0619-2.3789.0619a51.3842,51.3842,0,0,1-47.699-32.328,44.3249,44.3249,0,0,1-3.9262-18.9409,48.1533,48.1533,0,0,1,4.8241-21.285,51.3727,51.3727,0,0,1,89.199-7.844,1.2529,1.2529,0,0,0,.293.2769c.6841,1.0391,1.3869,2.0821,2.0469,3.203a50.1552,50.1552,0,0,1,0,50.969,53.5788,53.5788,0,0,1-4.8318,6.9221c-.156.1989-.312.387-.469.5779-.39.442-.7381.8711-1.1282,1.281-.489.583-1.0159,1.118-1.543,1.6841a2.2823,2.2823,0,0,0-.3088.3009A52.0114,52.0114,0,0,1,1766,283.1131c-.5468.1721-1.0739.34-1.598.52m46.098-95.418c-.008-.031-.0229-.0669-.031-.098l.0152-.0119a.2636.2636,0,0,0,.0158.11m-1.8709,126.4881a103.8666,103.8666,0,0,0-25.8949-17.937c2.3789,1.144,4.657,2.3669,6.8988,3.6749a77.0995,77.0995,0,0,0,26.1871-104.277,78.9837,78.9837,0,0,0-5.3281-8.0659l9.1841-9.204,11.75-11.742a4.4335,4.4335,0,0,0,0-6.0311l-2.6881-2.656a4.3532,4.3532,0,0,0-6.023,0l-14.652,14.652-5.438,5.442c-15.0308-13.2819-35.504-21.305-55.1169-21.305a77.9162,77.9162,0,0,0-77.684,77.6641c0,1.3789.0351,2.734.0981,4.0779l-18.125,18.1251a67.978,67.978,0,0,0,.6838-9.73v-80.09a9.2162,9.2162,0,0,0-8.9609-8.977h-8.2041a9.2092,9.2092,0,0,0-8.9529,8.977v80.09a37.7743,37.7743,0,0,1-11.148,27.5741c-7.1211,7.48-18.516,11.238-29.3131,11.238-10.492,0-21.859-3.6371-29.285-11.2031-7.23-7.6129-10.812-16.633-10.812-27.609v-80.09a9.2189,9.2189,0,0,0-8.9649-8.977h-8.2031a9.2043,9.2043,0,0,0-8.9609,8.977v80.09q0,1.6517.0781,3.2771l-25.41,26.223c-7.0122,7.3509-18.199,9.4369-28.8361,9.4879a47.53,47.53,0,0,1-22.9531-6.4609,49.2816,49.2816,0,0,1-17.496-18.8671c-4.1208-8.1919-6.3129-17.9379-6.3129-29.469v-47.137h73.7659a9.1153,9.1153,0,0,0,8.8672-8.8749v-8.3861a9.1474,9.1474,0,0,0-8.8672-8.899h-73.7659V130.0742a9.2287,9.2287,0,0,0-8.9841-8.922h-7.91a9.2184,9.2184,0,0,0-8.973,8.9809v28.152h-16.5509a9.1593,9.1593,0,0,0-8.906,8.9261v8.359a9.1165,9.1165,0,0,0,8.8748,8.8749h16.5821v50.6291c0,23.57,7.6089,43.102,23.5471,57.207,14.578,12.535,30.9609,19.3749,48.8469,19.953v.059c.2739,0,.5669-.016.8521-.016.5738,0,1.1369.016,1.723.016a8.2685,8.2685,0,0,0,1.7729-.1841c15.8791-.9959,31.699-7.281,42.902-18.7029l4.59-4.6791,7.7071-7.715,2.668-2.66a69.0885,69.0885,0,0,0,10.7189,14.48c12.3321,12.848,30.16,19.4611,47.695,19.4611,17.4772,0,35.309-6.438,47.633-19.043q2.1975-2.244,4.1372-4.598l34.437-34.4251c7.239,28.91,31.782,48.4141,73.3518,58.1361,17.9841,3.926,32.91,11.1719,44.1911,21.481,10.7741,9.9959,15.9849,22.2889,15.9849,37.586a59.1054,59.1054,0,0,1-58.832,58.8429,58.1168,58.1168,0,0,1-29.262-7.921,59.1965,59.1965,0,0,1-29.59-50.9219,60.1543,60.1543,0,0,1,6.926-28.2971,56.4041,56.4041,0,0,1,11.9648-14.871,9.3854,9.3854,0,0,0-1.988-15.391l-7.2659-3.7149a9.1313,9.1313,0,0,0-10.3669,1.199c-18.2,16.786-26.2461,34.504-26.2461,61.075,0,23.554,8.4761,43.9449,25.1951,60.6479,16.6989,16.711,37.098,25.168,60.6328,25.168,23.5392,0,43.957-8.457,60.6561-25.168,16.699-16.703,25.1559-37.0939,25.1559-60.6479,0-22.536-8.0469-41.621-23.9879-56.727" transform="translate(-15.1673 -68.207)" fill="#fff" fill-rule="evenodd"/><path d="M300.59,298.5042c5.535,2.461,4.969,8.2259,9.742,11.09,5.32,9.07,11.379,19.3859,6.566,30.7149,3.411,15.687-10.734,21.574-17.027,33.6561-3.879,1.5229-6.273,6.9139-11.6051,4.6129-2.9889,2.4491-7.4689,2.8241-10.84,2.164-1.4341,2.5351-4.6211.184-6.3951,1.695-23.1829,1.9651-37.3119-17.941-52.742-32.277-2.203-2.7189-5.4059-2.891-8.0659-5.93-3.84-.1281-6.528-4.7181-10.66-2.3121-3.118,1.742-6.028,3.918-9.68,4.0621-.82,2.625-4.4059.5-3.9179,3.6759-7.141,1.43-4.192,12.5-13.0351,9.723-3.3709,1.1681-4.25-2.926-6.8789-3.402.586-3.469-.778-5.321.906-8.223,5.231-2.57,10.356-6.7849,14.953-9.6249.84-2.524,4.871-2.524,7.153-4.1841.66-1.0469,1.793-1.008,2.55-1.8859,7.3869.9719,15.996-.961,22.125,2.718,7.3169,2.528,14.6449,9.9649,20.41,14.6449,5.301,7.3511,12.469,16.754,20.887,18.527,1.93,5.223,9.664,2.8871,14.477,4.317,1.074-.2039,2.4179-1.5939,3.16-.5429,2.961-.977,7.2461,0,8.961-2.8991,3.7231.262,6.1681-2.976,9.605-3.4689.8751-.66.9931-2.6171,2.59-1.7961,3.6641-3.8249,9.977-7.563,10.0351-13.614,3.118-2.609-.3081-5.875.899-9.4609,3.117-10.8161-1.617-20.183-6.567-28.7381-4.211-2.273-8.73-6.1049-13.621-8.105-9.742-.6219-21.683-1.25-26.226,6.058-.352,5.582-8.106,4.3281-5.446,11.195-1.429,7.852,5.836,10.395,9.5979,15.571,6.0591-1.8709,8.3981,4.375,14.535,2.453,3.3911-1.6129,5.203-5.1839,7.168-8.0159-.9139-2.383-2.297-4.648-1.6129-7.679,3.164-.1291,1.437-4.1021,4.5979-4.258,3.195-.301,1.753,3.312,3.66,4.57,2.902,3.1881,2.554,9.496,1.383,13.9811-2.0431.785-1.11,2.863-1.4221,4.4019-3.7389,4.988-8.981,8.8941-14.9069,9.6011-11.7461-1.21-21.004-5.2771-27.957-15.5621-3.214-4.16-6.9761-9.996-4.519-16.035.582.23.875-.2309,1.285-.52-2.543-2.597,2.4529-4.168.836-6.332,3.1169-7.957,9.1169-15.758,17.7889-18.39,5.5741,2.164,9.84-3.2071,15.844-2.0041,7.2071,1.832,14.4961,3.5041,21.41,5.8281" transform="translate(-15.1673 -68.207)" fill="#0994dc"/><path d="M159.0943,361.0431c6.879,6.266,17.7109,6.8161,26.578,4.4691,7.676-2.2,11.6329-9.203,18.434-13.3051,2.238,0,3.4489,2.4411,5.687,2.531-6.742,7.844-11.555,16.4921-21.559,19.59-6.9841,1.2271-15.148,3.285-22.183.6881-5.942-.3321-8.867-3.8721-13.949-6.329v-1.253a62.6032,62.6032,0,0,1-10.1331-12.0711c-2.555-1.8829-2.477-3.793-5.008-5.0779-1.0119-4.2261-5.7109-7.43-8.914-10.133-3.77-3.894-10.57-3.066-16.531-3.1911-10.875-.3519-14.8869,13.2691-24.0279,15.859-1.1481,2.348-4.597,2.172-4.4411,5.106,10.1331,4.32,13.8161-7.6959,21.5511-9.578,9.39-1.547,17.086,3.73,21.511,11.437,2.082,3.527,7.586,6.645,6.372,12.106a6.8153,6.8153,0,0,1-5.1061,1.1751,114.4234,114.4234,0,0,1-16.4569-14.539c-4.062-.3591-6.75,2.746-10.742,2.5159-4.797,2.531-6.703,7.91-12.688,7.6441-5.492,0-10.074-2.3041-15.2461-3.175-1.2969-2.325-4.1789-.8171-6.285-1.293-3.8749-5.36-5.8909-12.6761-8.8829-19.0351-1.91-1.598-1.168-4.344-3.7811-5.672-2.891-1.5709-6.5469,1.683-6.973-3.1759-10.1909-.5081-16.367,7.25-20.277,15.2069-.152,5.2691.5591,11.34,5.6911,13.289,2.661,3.4691,8.504,1.703,9.481,6.3981,2.961-1.171,6.8009-.0861,8.9019-3.2341a12.3594,12.3594,0,0,0-3.797-11.3549c-5.1049-3.161-7.89,3.093-12.6439,2.5189a2.0453,2.0453,0,0,1-3.219.625c-2.8631-.7769.4179-2.9729-.601-5.047,4.148-7.402,13.445-6.816,20.886-5.746,7.09,2.094,6.77,11.0741,11.3989,15.2271,1.734,7.7069-5.477,11.2689-9.461,15.8589-7.258,6.4181-14.8279-1.3669-22.8239-.68-4.192-.82-7.7-3.414-10.7971-6.914-4.657-7.879-4.93-19.879-1.907-28.48,1.6061-.164,1.9651-1.91,1.907-3.203,8.183-8.0979,19.875-14.989,32.9881-12.055,12.93,4.0311,13.2889,18.8321,20.879,27.8951.691.7069,1.351,1.671,2.523,1.2849,1.168-.3789-1.3831-3.481,1.285-2.563,2.047-4.4649,3.86-9.6829,8.223-12.648.117-2.5389,2.981-3.797,4.441-5.754,2.961-.109,4.0549-5.4839,8.204-4.402,2.863-5.758,10.269-2.891,14.574-6.3049,24.0819-3.406,33.3789,20.808,46.918,34.7889" transform="translate(-15.1673 -68.207)" fill="#0994dc"/><path d="M183.6063,88.0472c1.015,7.3829,5.867,14.0039,3.117,22.152-1.813,1.1449-1.6571,3.5079-2.551,4.4609-1.617,3.3631-1.441,7.5391-5.0081,10.106-1.6949,4.57-7.133,7.062-9.5659,10.2111-9.43,7.6049-22.3091,10.07-34.821,6.914-5.609-.1761-6.937-1.3051-10.5971-4.0631a83.1815,83.1815,0,0,0-6.664-7.101c-1.8049-1.6179-1.5389-5.426-2.3789-9.09-1.6061-4.3249,0-7.602,0-11.4379a30.7238,30.7238,0,0,1-5.668-12.6641c2.238-7.2379,9.41-9.9179,14.926-14.707,10.4209-9.062,25.425-19.7229,40.839-11.91,7.969,3.828,12.84,10.098,18.372,17.1291" transform="translate(-15.1673 -68.207)" fill="#fab20b"/><path d="M226.7853,81.8912c3.719,4.011,7.344,8.578,10.852,13.218,3.586.75,5.164-3.1641,8.242-3.761,2.7069-2.618,5.9019-6.668,10.113-6.9651,4.11.75,5.465,3.898,8.922,6.312.07,2.8671,2.6519,5.321,4.367,6.985,7.012-1.52,13.8519-5.2,21.168-5.8249,4.336,5.7-.125,13.3559-1.492,19.125-2.004,7.043-5.949,11.7189-8.863,18.3519.137,3.625-2.824,5.969-4.4611,8.8591-.9379,4.7819-2.828,8.6289-5.7309,11.4069.567,3.523-3.5661,3.613-3.136,6.9021-8.028,7.394-8.825,17.578-17.106,24.8089-3.254,5.5821-8.437,9.293-12.6681,13.933-3.5939,5.871-10.1479,6.0391-14.5349,12.68-2.883.3319-4.441,3.996-7.043,5.019-4.723,6.2069,1.0039,12.754,0,19.68,4.59,6.973-.32,14.797-.6331,22.18-1.4019,3.371-3.6049,4.789-5.0079,8.242.3519,8.324,11.34,14.0389,15.571,15.07,1.691.1989,2.113.59,2.765,1.715.039,1.348-5.242,3.1909-7.7341,7.266.9341,3.8039,7.4021,5.0229,8.32,7.4569-2.183,2.9841-8.281,3.488-9.355,6.1291,2.203,2.933,9.41,3.175,11.906,5.5929.41,3.309-4.109,2.36-5.648,4.2781-13.078,2.5229-27.223,2.5229-39.293-1.918-9.84-1.3171-19.008,2.168-28.555,3.1829-4.1091-.672-4.344,2.1371-8.047.106-.7421.035-1.363-.551-2.668-.106-1.832,2.399-7.1521-5.101-6.976-8.836,2.0269-2.8239-1.6761-8.472,3.156-9.554,2.797-4.2819,5.535-10.1409,2.516-15.16-8.02-7.1641-5.399-18.743-10.094-27.231.7379-7.2891-1.0741-15.0821,3.144-22.195-.496-1.2351.848-2.2621,1.278-2.5941,4.187-11.164,15.121-20.352,12.644-33.539-1.597-3.211.0779-3.996-.855-6.2069-.742-3.758-2.5551-5.25-.3711-9.645,3.1681-14.457,19.8161-16.625,30.3941-24.703,12.082-2.6441,18.004-16.2261,24.106-25.379a5.9435,5.9435,0,0,1,1.246-4.3671c6.4879-5.359,5.297-16.027,10.754-22.8829-.5861-2.394.894-3.9371,1.91-5.6711a46.9755,46.9755,0,0,1,3.683-13.8829c1.3909-.3521,2.473.429,3.215,1.922" transform="translate(-15.1673 -68.207)" fill="#ed1c24"/><path d="M54.91,103c9.5669,10.23,14.321,27.16,26.051,34.8279,3.937,6.371,11.1639,10.2811,18.414,11.3591,3.898,5.047,11.848,2.961,16.434,7.59,5.679-1.668,6.226,5.035,11.41,4.4609,2.3589,3.379,5.601,5.8671,7.012,10.184,2.0269,12.738-8.4341,20.2811-8.258,32.2731-6.45,13.172,1.3239,26.672.582,40.582a15.4257,15.4257,0,0,1-1.871,9.4849c-.157,11.797-8.016,19.734-15.215,27.832-2.613,8.191,3.176,19.66-4.406,26.0111-3.4461.059-6,2.5509-9.528,2.5509-5.98,2.0781-13.902,1.3281-20.262.617-2.164-2.964-7.082.7111-8.847-3.1679-3.0981-2.125-8.3011-1.1681-11.465-1.285-7.9611-.8011-15.0311.2539-23.781-.769a15.6213,15.6213,0,0,1-5.692.1719c-2.7261-1.5819.7619-4.875,2.711-6.118,3.274-1.7809,3.039-1.6249,4.3639-2.91.8351-3.5149-6.8989-2.8279-5.922-6.4219,2.4331-1.75,8.66-3.554,7.8321-7.285-1.414-4.504-8.0281-5.32-8.75-8.9721,5.8669-4.9689,15.179-6.7039,23.5581-6.9969.9848-2.5821,4.5779-1.2381,4.4419-3.73.8749-2.613,3.996-5.1759,1.89-8.2619-1.0151-1.48.43-2.9611-1.2851-4.492a20.4262,20.4262,0,0,0,.6331-7.578c2.426-2.777-1.0041-5.6721,1.937-8.191-.625-5.86,3.4689-11.106,3.7819-15.2311-.4489-2.6679,1.2461-1.68,2.6211-5.3049,1.3509-3.722,3.125-4.207,3.711-6.453.586-2.2971-.41-13.383-6.946-16.769-6.988-2.696-9.8781-9.977-15.187-13.938-5.34-7.5821-7.5821-18.629-15.219-24.6521-.7421-6.594-3.711-7.1879-4.7731-14.2769-2.1838-3.0471-3.7109-8.844-4.422-11.1251,4.1091-3.684,12.0581,4.336,14.5121-.1179-.114-2.6991-1.2461-9.8081,1.5309-10.7651,4.6681.1831,10.14,2.695,13.2971,1.082C53.5083,114.2232,49.34,102.98,54.91,103" transform="translate(-15.1673 -68.207)" fill="#00a650"/></svg>