<svg id="Ebene_2_Kopie" data-name="Ebene 2 Kopie" xmlns="http://www.w3.org/2000/svg" viewBox="0 0 405.5018 53.181"><title>divider-w</title><path d="M404.2891,2.0456a3.9465,3.9465,0,0,0-3.8172,2.9655c-24.621.0583-156.4808.37-165.1316.3619.2368,0,3.9034,14.541-11.575,21.0268a16.2754,16.2754,0,0,1-13.1837-.2969,13.7671,13.7671,0,0,1-3.9127-2.6533V22.3534a23.4989,23.4989,0,0,0,2.3685-4.4542c.27-.5677,2.21-7.2454-1.3343-12.4944,3.6074-3.0061,8.7567-4.0274,13.1677-1.1476,3.9434,2.5747,3.6388,7.9145.6859,11.1567a7.8091,7.8091,0,0,1-5.7,2.3655,6.3392,6.3392,0,0,1-3.2728-1.0675c-1.2766-.772-1.2089-.8812-1.4489-2.07-.163-.8128-1.138-1.458-1.298-2.2561.6367,3.1712,2.9775,6.6055,6.155,7.493,5.06,1.4165,9.29-3.7473,9.105-8.3651-.123-3.0452-2.4485-6.7872-4.6385-8.8189-3.7591-3.49-9.4834-3.0283-13.3715-.1922a12.2677,12.2677,0,0,0-1.1.9085,12.2693,12.2693,0,0,0-1.1-.9085c-3.8912-2.8361-9.6155-3.2976-13.3713.1922-2.1932,2.0317-4.5186,5.7737-4.6386,8.8189-.1907,4.6178,4.0389,9.7816,9.1048,8.3651,3.1776-.8875,5.5215-4.3218,6.1553-7.493-.16.7981-1.1352,1.4433-1.2982,2.2561-.24,1.1889-.1753,1.2981-1.4488,2.07a6.3407,6.3407,0,0,1-3.2759,1.0675,7.7905,7.7905,0,0,1-5.6936-2.3655c-2.9561-3.2422-3.2606-8.582.68-11.1567,4.4127-2.88,9.5628-1.8585,13.1706,1.1477-3.5441,5.2489-1.6036,11.9267-1.3341,12.4943a23.4358,23.4358,0,0,0,2.4208,4.5387v.9631a13.7379,13.7379,0,0,1-3.965,2.7019A16.2757,16.2757,0,0,1,188.21,26.4C172.7254,19.914,176.3981,5.373,176.6318,5.373c-8.8517.008-146.3095-.3182-166.2232-.3656A3.969,3.969,0,1,0,10.4424,7.68c21.1734-.0051,147.6377-.0351,164.3008-.0486,0,.0093-.0091.0185-.0091.0262a19.5289,19.5289,0,0,0,5.0168,16.1681c6.7856,7.0367,19.0521,8.7231,25.6077.36v2.3827a3.0343,3.0343,0,0,0,0,5.9275c0,1.2474-.2614,4.4833-.2523,4.8525a3.4618,3.4618,0,0,1-4.3833,3.2421c-1.9932-.6661-3.3435-3.6129-.4306-4.052,1.1105-.1669,1.4549-2.7368.206-2.5446-4.2755.6475-5.18,6.97-1.2212,8.8035a4.8162,4.8162,0,0,0,6.0814-1.6964v2.83a3.0384,3.0384,0,0,0-2.3839,2.9638c0,1.6795,3.039,6.5112,3.039,6.5112s3.0392-4.8317,3.0392-6.5112a3.0386,3.0386,0,0,0-2.384-2.9638V41.503a5.28,5.28,0,0,0,1.2828,1.08,4.468,4.468,0,0,0,4.983-.2015c2.6023-2.2025,3.3805-7.9668-1.1105-8.4221-.92-.0923-1.464,2.4331-.67,2.5147,1.1042.1139,3.03,1.0451,2.5406,2.5423a2.84,2.84,0,0,1-2.5406,1.69,4.32,4.32,0,0,1-4.3342-3.0529c.0585-.3937-.1507-4.0264-.1507-5.1569a3.0342,3.0342,0,0,0,0-5.9275v-2.32c6.568,8.2891,18.7875,6.5953,25.5554-.4232a19.5289,19.5289,0,0,0,5.0169-16.1681.1157.1157,0,0,0-.0091-.0262c16.4539.0133,140.0244.0429,163.479.0484a3.9566,3.9566,0,1,0,3.578-5.6344ZM203.2454,16.1338a11.79,11.79,0,0,1,2.7421-9.0072,11.79,11.79,0,0,1,2.7424,9.0072,12.6951,12.6951,0,0,1-2.061,5.6972v-.11h-1.31v.196A12.659,12.659,0,0,1,203.2454,16.1338Z" transform="translate(-2.7491 -0.2253)" fill="#fff"/></svg>